<svg width="152" height="34" viewBox="0 0 152 34" fill="none" xmlns="http://www.w3.org/2000/svg">
<path d="M40.2402 33.34H33.3202V0.459991H40.2402V33.34Z" fill="black"/>
<path d="M50.229 33.34H43.309V0.459991H50.229V33.34Z" fill="black"/>
<path d="M60.1133 33.34H53.1932V0.459991H60.1133V33.34Z" fill="black"/>
<path d="M70.0833 33.34H63.1632V0.459991H70.0833V33.34Z" fill="black"/>
<path d="M79.9961 33.34H73.076V0.459991H79.9961V33.34Z" fill="black"/>
<path d="M89.9275 33.34H83.0075V0.459991H89.9275V33.34Z" fill="black"/>
<path d="M99.8519 33.34H92.9318V0.459991H99.8519V33.34Z" fill="black"/>
<path d="M109.765 33.34H102.845V0.459991H109.765V33.34Z" fill="black"/>
<path d="M119.682 33.34H112.762V0.459991H119.682V33.34Z" fill="black"/>
<path d="M129.613 33.34H122.693V0.459991H129.613V33.34Z" fill="black"/>
<path d="M139.544 33.34H132.624V0.459991H139.544V33.34Z" fill="black"/>
<path d="M149.468 33.34H142.548V0.459991H149.468V33.34Z" fill="black"/>
<path d="M21.9881 12.33L22.0281 12.39C24.1681 15.69 26.2681 18.99 28.4081 22.25L28.4381 22.31C27.9281 22.3 27.4281 22.29 26.9181 22.29C23.5181 22.29 20.1181 22.29 16.7181 22.29C15.6881 22.29 14.8081 21.41 14.8081 20.37C14.8081 19.34 15.6881 18.46 16.7181 18.46C18.6881 18.46 20.6581 18.46 22.6281 18.46C22.7981 18.46 22.9681 18.42 23.1281 18.33C23.0181 18.15 22.9281 18 22.8481 17.86C20.7081 14.6 18.6081 11.3 16.4681 8.04L16.4381 7.98C16.9481 7.99 17.4481 8 17.9581 8C21.3581 8 24.7581 8 28.1581 8C29.1881 8 30.0681 8.88 30.0681 9.92C30.0681 10.95 29.1881 11.83 28.1581 11.83C26.1881 11.83 24.2181 11.83 22.2481 11.83C22.1081 11.83 21.9981 11.85 21.8981 11.93C21.9281 11.98 21.9581 12.03 21.9881 12.08V12.33Z" fill="#4CAF50"/>
<path d="M13.2981 26.12L13.3281 26.17C15.5181 29.5 17.6681 32.78 19.8681 36.02L19.8981 36.08C19.3881 36.07 18.8881 36.06 18.3781 36.06C14.9781 36.06 11.5781 36.06 8.17805 36.06C7.14805 36.06 6.26805 35.18 6.26805 34.14C6.26805 33.11 7.14805 32.23 8.17805 32.23C10.1481 32.23 12.1181 32.23 14.0881 32.23C14.2581 32.23 14.4281 32.19 14.5881 32.1C14.4781 31.92 14.3881 31.77 14.3081 31.63C12.1681 28.37 10.0681 25.07 7.92805 21.81L7.89805 21.75C8.40805 21.76 8.90805 21.77 9.41805 21.77C12.8181 21.77 16.2181 21.77 19.6181 21.77C20.6481 21.77 21.5281 22.65 21.5281 23.69C21.5281 24.72 20.6481 25.6 19.6181 25.6C17.6481 25.6 15.6781 25.6 13.7081 25.6C13.5681 25.6 13.4581 25.62 13.3581 25.7C13.3181 25.96 13.2981 26.04 13.2981 26.12Z" fill="#4CAF50"/>
<path d="M2.20805 20.37L2.24805 20.43C4.38805 23.73 6.48805 27.03 8.62805 30.29L8.65805 30.35C8.14805 30.34 7.64805 30.33 7.13805 30.33C3.73805 30.33 0.33805 30.33 -3.06195 30.33C-4.09195 30.33 -4.97195 29.45 -4.97195 28.41C-4.97195 27.38 -4.09195 26.5 -3.06195 26.5C-1.09195 26.5 0.87805 26.5 2.84805 26.5C3.01805 26.5 3.18805 26.46 3.34805 26.37C3.23805 26.19 3.14805 26.04 3.06805 25.9C0.92805 22.64 -1.17195 19.34 -3.27195 16.08L-3.30195 16.02C-2.79195 16.03 -2.29195 16.04 -1.78195 16.04C1.61805 16.04 5.01805 16.04 8.41805 16.04C9.44805 16.04 10.3281 16.92 10.3281 17.96C10.3281 18.99 9.44805 19.87 8.41805 19.87C6.44805 19.87 4.47805 19.87 2.50805 19.87C2.36805 19.87 2.25805 19.89 2.15805 19.97C2.18805 20.02 2.20805 20.28 2.20805 20.37Z" fill="#4CAF50"/>
</svg> 